# xmcd
#
# Track frame offsets:
#	150
#	10237
#	21247
#	31187
#	39652
#	52760
#	64120
#	74330
#	87045
#	96845
#	107815
#
# Disc length: 1660 seconds
#
# Revision: 1
# Processed by: cddbd v1.5.1PL0 Copyright (c) Steve Scherf et al.
# Submitted via: audiograbber 1.83.01
#
DISCID=84067a0b
DTITLE=Various Artist - Super Hits Great Balls Of Fire
DYEAR=1900
DGENRE=country
TTITLE0=Johnny Cash - Get Rhythm
TTITLE1=Johnny Cash - Cry, Cry, Cry
TTITLE2=Johnny Cash - Ballad Of A Teenage Queen
TTITLE3=Jerry Lee Lewis - Great Balls Of Fire
TTITLE4=Jerry Lee Lewis - Whole Lotta Shakin' Goin' On
TTITLE5=Jerry Lee Lewis - High School Confidential
TTITLE6=Carl Perkins - Blue Suede Shoes
TTITLE7=Carl Perkins - Boppin' The Blues
TTITLE8=Charlie Rich - Lonely Weekends
TTITLE9=Charlie Rich - Who Will The Next Fool Be
TTITLE10=Sales Pitch - Sales Pitch
EXTD=
EXTT0=
EXTT1=
EXTT2=
EXTT3=
EXTT4=
EXTT5=
EXTT6=
EXTT7=
EXTT8=
EXTT9=
EXTT10=
PLAYORDER=
